<svg width="30" height="30" viewBox="0 0 30 30" fill="none" xmlns="http://www.w3.org/2000/svg">
<path d="M15 20C16.5625 20 17.8908 19.4533 18.985 18.36C20.0792 17.2667 20.6258 15.9383 20.625 14.375C20.625 12.8125 20.0783 11.4846 18.985 10.3912C17.8917 9.29792 16.5633 8.75083 15 8.75C13.4375 8.75 12.1096 9.29708 11.0162 10.3912C9.92292 11.4854 9.37583 12.8133 9.375 14.375C9.375 15.9375 9.92208 17.2658 11.0162 18.36C12.1104 19.4542 13.4383 20.0008 15 20ZM15 17.75C14.0625 17.75 13.2658 17.4217 12.61 16.765C11.9542 16.1083 11.6258 15.3117 11.625 14.375C11.625 13.4375 11.9533 12.6408 12.61 11.985C13.2667 11.3292 14.0633 11.0008 15 11C15.9375 11 16.7346 11.3283 17.3913 11.985C18.0479 12.6417 18.3758 13.4383 18.375 14.375C18.375 15.3125 18.0471 16.1096 17.3913 16.7663C16.7354 17.4229 15.9383 17.7508 15 17.75ZM15 23.75C12.2083 23.75 9.66125 23 7.35875 21.5C5.05625 20 3.23875 18.0208 1.90625 15.5625C1.80208 15.375 1.72417 15.1825 1.6725 14.985C1.62083 14.7875 1.59458 14.5842 1.59375 14.375C1.59375 14.1667 1.62 13.9633 1.6725 13.765C1.725 13.5667 1.80292 13.3742 1.90625 13.1875C3.23958 10.7292 5.0575 8.75 7.36 7.25C9.6625 5.75 12.2092 5 15 5C17.7917 5 20.3388 5.75 22.6413 7.25C24.9438 8.75 26.7613 10.7292 28.0938 13.1875C28.1979 13.375 28.2763 13.5679 28.3288 13.7662C28.3813 13.9646 28.4071 14.1675 28.4063 14.375C28.4063 14.5833 28.3804 14.7867 28.3288 14.985C28.2771 15.1833 28.1988 15.3758 28.0938 15.5625C26.7604 18.0208 24.9429 20 22.6413 21.5C20.3396 23 17.7925 23.75 15 23.75Z" fill="currentColor"/>
</svg>
