<svg width="30" height="31" viewBox="0 0 30 31" fill="none" xmlns="http://www.w3.org/2000/svg">
<path d="M24.75 28.75L19.5 23.5625C18.7708 23.7917 18.0312 23.9638 17.2812 24.0788C16.5312 24.1938 15.7708 24.2508 15 24.25C12.2083 24.25 9.65625 23.5 7.34375 22C5.03125 20.5 3.21875 18.5208 1.90625 16.0625C1.80208 15.875 1.72417 15.6825 1.6725 15.485C1.62083 15.2875 1.59458 15.0842 1.59375 14.875C1.59375 14.6667 1.62 14.4633 1.6725 14.265C1.725 14.0667 1.80292 13.8742 1.90625 13.6875C2.36458 12.875 2.85417 12.0833 3.375 11.3125C3.89583 10.5417 4.5 9.85417 5.1875 9.25L1.75 5.75L3.5 4L26.5 27L24.75 28.75ZM15 20.5C15.2292 20.5 15.4479 20.4896 15.6562 20.4688C15.8646 20.4479 16.0729 20.4062 16.2812 20.3438L9.53125 13.5938C9.46875 13.8021 9.42708 14.0104 9.40625 14.2188C9.38542 14.4271 9.375 14.6458 9.375 14.875C9.375 16.4375 9.92208 17.7658 11.0162 18.86C12.1104 19.9542 13.4383 20.5008 15 20.5ZM24.125 21.0625L20.1562 17.125C20.3021 16.7708 20.4167 16.4062 20.5 16.0312C20.5833 15.6562 20.625 15.2708 20.625 14.875C20.625 13.3125 20.0779 11.9842 18.9838 10.89C17.8896 9.79583 16.5617 9.24917 15 9.25C14.6042 9.25 14.2188 9.29167 13.8438 9.375C13.4688 9.45833 13.1042 9.58333 12.75 9.75L9.5625 6.5625C10.4375 6.20833 11.3283 5.94292 12.235 5.76625C13.1417 5.58958 14.0633 5.50083 15 5.5C17.7917 5.5 20.3492 6.25542 22.6725 7.76625C24.9958 9.27708 26.8133 11.2612 28.125 13.7188C28.2292 13.8854 28.3075 14.0679 28.36 14.2662C28.4125 14.4646 28.4383 14.6675 28.4375 14.875C28.4375 15.0833 28.4167 15.2867 28.375 15.485C28.3333 15.6833 28.2604 15.8654 28.1562 16.0312C27.6562 17.0104 27.0779 17.9271 26.4212 18.7812C25.7646 19.6354 24.9992 20.3958 24.125 21.0625ZM18.3438 15.3125L14.5938 11.5625C15.1354 11.4583 15.6617 11.5 16.1725 11.6875C16.6833 11.875 17.1154 12.1667 17.4688 12.5625C17.8229 12.9375 18.0783 13.3646 18.235 13.8438C18.3917 14.3229 18.4279 14.8125 18.3438 15.3125Z" fill="currentColor"/>
</svg>
