<svg width="30" height="31" viewBox="0 0 30 31" fill="none" xmlns="http://www.w3.org/2000/svg">
<path d="M6.5625 14.5625H25.3125C25.5611 14.5625 25.7996 14.6613 25.9754 14.8371C26.1512 15.0129 26.25 15.2514 26.25 15.5C26.25 15.7486 26.1512 15.9871 25.9754 16.1629C25.7996 16.3387 25.5611 16.4375 25.3125 16.4375H6.5625C6.31386 16.4375 6.0754 16.3387 5.89959 16.1629C5.72377 15.9871 5.625 15.7486 5.625 15.5C5.625 15.2514 5.72377 15.0129 5.89959 14.8371C6.0754 14.6613 6.31386 14.5625 6.5625 14.5625Z" fill="currentColor"/>
<path d="M6.95035 15.5L14.726 23.2737C14.902 23.4498 15.0009 23.6885 15.0009 23.9375C15.0009 24.1864 14.902 24.4252 14.726 24.6012C14.5499 24.7773 14.3112 24.8761 14.0622 24.8761C13.8133 24.8761 13.5745 24.7773 13.3985 24.6012L4.96097 16.1637C4.87367 16.0766 4.8044 15.9732 4.75714 15.8593C4.70987 15.7454 4.68555 15.6233 4.68555 15.5C4.68555 15.3766 4.70987 15.2545 4.75714 15.1407C4.8044 15.0268 4.87367 14.9233 4.96097 14.8362L13.3985 6.39871C13.5745 6.22268 13.8133 6.12378 14.0622 6.12378C14.3112 6.12378 14.5499 6.22268 14.726 6.39871C14.902 6.57475 15.0009 6.81351 15.0009 7.06246C15.0009 7.31142 14.902 7.55018 14.726 7.72621L6.95035 15.5Z" fill="currentColor"/>
</svg>
