<svg width="30" height="31" viewBox="0 0 30 31" fill="none" xmlns="http://www.w3.org/2000/svg">
<path d="M7.5 28C6.8125 28 6.22375 27.755 5.73375 27.265C5.24375 26.775 4.99917 26.1867 5 25.5V13C5 12.3125 5.245 11.7238 5.735 11.2338C6.225 10.7438 6.81334 10.4992 7.5 10.5H8.75V8C8.75 6.27083 9.35959 4.79667 10.5788 3.5775C11.7979 2.35833 13.2717 1.74917 15 1.75C16.7292 1.75 18.2033 2.35958 19.4225 3.57875C20.6417 4.79792 21.2508 6.27167 21.25 8V10.5H22.5C23.1875 10.5 23.7763 10.745 24.2663 11.235C24.7563 11.725 25.0008 12.3133 25 13V25.5C25 26.1875 24.755 26.7763 24.265 27.2663C23.775 27.7563 23.1867 28.0008 22.5 28H7.5ZM15 21.75C15.6875 21.75 16.2763 21.505 16.7663 21.015C17.2563 20.525 17.5008 19.9367 17.5 19.25C17.5 18.5625 17.255 17.9738 16.765 17.4838C16.275 16.9938 15.6867 16.7492 15 16.75C14.3125 16.75 13.7238 16.995 13.2338 17.485C12.7438 17.975 12.4992 18.5633 12.5 19.25C12.5 19.9375 12.745 20.5263 13.235 21.0163C13.725 21.5063 14.3133 21.7508 15 21.75ZM11.25 10.5H18.75V8C18.75 6.95833 18.3854 6.07292 17.6563 5.34375C16.9271 4.61458 16.0417 4.25 15 4.25C13.9583 4.25 13.0729 4.61458 12.3438 5.34375C11.6146 6.07292 11.25 6.95833 11.25 8V10.5Z" fill="currentColor"/>
</svg>
