<svg width="30" height="31" viewBox="0 0 30 31" fill="none" xmlns="http://www.w3.org/2000/svg">
<path d="M5 25.5C4.3125 25.5 3.72375 25.255 3.23375 24.765C2.74375 24.275 2.49917 23.6867 2.5 23V8C2.5 7.3125 2.745 6.72375 3.235 6.23375C3.725 5.74375 4.31334 5.49917 5 5.5H25C25.6875 5.5 26.2763 5.745 26.7663 6.235C27.2563 6.725 27.5008 7.31334 27.5 8V23C27.5 23.6875 27.255 24.2763 26.765 24.7663C26.275 25.2563 25.6867 25.5008 25 25.5H5ZM15 16.75L25 10.5V8L15 14.25L5 8V10.5L15 16.75Z" fill="currentColor"/>
</svg>
