<svg width="30" height="31" viewBox="0 0 30 31" fill="none" xmlns="http://www.w3.org/2000/svg">
<path d="M8.275 13.9875C10.075 17.525 12.975 20.4125 16.5125 22.225L19.2625 19.475C19.6 19.1375 20.1 19.025 20.5375 19.175C21.9375 19.6375 23.45 19.8875 25 19.8875C25.6875 19.8875 26.25 20.45 26.25 21.1375V25.5C26.25 26.1875 25.6875 26.75 25 26.75C13.2625 26.75 3.75 17.2375 3.75 5.5C3.75 4.8125 4.3125 4.25 5 4.25H9.375C10.0625 4.25 10.625 4.8125 10.625 5.5C10.625 7.0625 10.875 8.5625 11.3375 9.9625C11.475 10.4 11.375 10.8875 11.025 11.2375L8.275 13.9875Z" fill="currentColor"/>
</svg>
